<svg xmlns="http://www.w3.org/2000/svg" enable-background="new 0 0 285.6 379.1" version="1.1" viewBox="0 0 285.6 379.1" x="0px" xml:space="preserve" y="0px" style="fill: rgb(0, 0, 0);" role="img" aria-label="Book Drawing">
<g id="__id698_s3xwtxssyn"><path d="m282.3 38c-0.8-2.9-0.7-6.1-2-8.7-0.8-1.6-3.4-2.5-5.3-3.3-0.6-0.2-2.4 0.9-2.6 1.7-1.2 4.5-2.7 9-3 13.5-0.7 10.1-0.5 20.2-1.2 30.3-0.7 9.2-2.4 18.4-3.1 27.7-1.3 15.4-2.1 30.9-3.1 46.4-0.9 14.4-2.1 28.9-2.7 43.3-0.8 20.4-1.3 40.8-1.6 61.2-0.4 21.2-0.4 42.5-0.6 63.8-0.1 10.9-0.8 21.9-0.5 32.8 0.1 3.4-0.9 3.1-3.3 2.9-8.7-0.7-17.5-1.6-26.3-1.9-13.2-0.4-26.3-0.3-39.5-0.5-12.6-0.2-25.2-0.4-37.9-0.7-10.6-0.3-21.2-0.8-31.8-1.1-11.4-0.3-22.8-0.6-34.2-0.7-5.8 0-11.5 0.2-17.3 0.5-10.4 0.6-20.7 1.3-31.1 2-6 0.4-11.9 1-18 1.5v-11.7c-0.2-12.3-3.7-24.2-2-36.7 1.5-11.1 1.2-22.4 1.8-33.7 0.5-10 1.1-20.1 1.4-30.1 0.4-11.1 0.4-22.1 0.7-33.2 0.3-10.9 1.2-21.8 1.3-32.7 0.2-14.1-0.6-28.2-0.1-42.3 0.6-16.9 2.4-33.8 3-50.7 0.7-17.4 0.7-34.9 0.7-52.4 0-2.7-0.5-5.9-2-8.1-1-1.5-4-2.3-6.1-2.4-1.1 0-3.1 2-3.3 3.4-1.9 11.6-3.9 23.2-5 34.9-1.1 14.8-1.4 29.8-2.2 44.7-0.6 11.8-1.6 23.6-1.9 35.4-0.4 16.3 0 32.6-0.3 48.9-0.2 10.3-1.2 20.6-1.5 30.9-0.3 11.3-0.2 22.6-0.2 33.8 0 16.7-0.6 33.4 0.2 50 0.7 16.3 2.9 32.6 4.1 48.9 0.2 3.1 0.5 6.5-3.6 8.4-3.1 1.4-1.9 4.1 0.4 4.9 6.3 2 12.8 3.9 19.3 4.9 7.7 1.2 15.3-0.2 23-1.2 10.3-1.3 20.9-0.6 31.4-0.7 9.1-0.1 18.2-0.3 27.3-0.3 8.9 0 17.8 0.3 26.7 0.5 6.4 0.1 12.9 0.2 19.3 0.6 10.3 0.5 20.6 1.4 30.9 1.7 9 0.2 18.1-0.9 27-0.4 17.2 0.9 34.4 2.5 52 3.9 0.9 2.2 2.1 5.1 3.2 8 1.2 3.3 3.7 3.5 5.8 1.5 1.6-1.5 3-3.9 3.2-6.1 0.8-8.6 1.3-17.2 1.6-25.8 0.3-7.3 0-14.7 0.3-22 0.3-8.2 1.2-16.4 1.2-24.7 0-16-0.7-32.1-0.6-48.1 0.1-15 0.9-29.9 1.4-44.8 0.3-7.7 0.3-15.5 0.8-23.2 0.5-9 1.5-18 2-27 0.5-7.6 0.3-15.3 0.9-23 1.1-12.7 2.8-25.4 3.9-38.2 0.6-7.1 0.2-14.3 0.9-21.4 1.3-11.7 1.6-23.4-1.8-35.1zm-226.9 246.2c2.2 2.3 4.3 4.7 6.9 6.5 1.3 0.9 3.5 1.1 5.2 1 7.9-0.5 15.7-1.2 23.5-1.8 12.1-1 24.2-2.3 36.4-2.9 14.9-0.7 29.8-0.5 44.7-1.1 10.6-0.4 21.2-1.6 31.8-2.5 3.1-0.3 6.8-0.1 9-1.8 2.5-1.9 4.2-5.4 5.1-8.6 1.4-5.2 2.3-10.7 2.7-16.1 0.7-11.4 1-22.7 1.4-34.1 0.5-12.3 0.8-24.7-6.4-34.9-7.8 0-15.6 0.3-23.3-0.1-12-0.6-24.1-1.7-36.1-2.6-11.7-0.8-23.5-1.8-35.2-2.1-7.6-0.2-15.3 0.1-22.7 1.4-9.4 1.6-18.8-1.7-28.4 1.4-6.8 2.2-9.1 3.5-9.1 11 0 10.3 0 20.6-0.8 30.9-1 12.8-2.8 25.5-4.1 38.3-0.1 1.3 0.8 2.8 1 4.2 0.2 1.9 0.9 4.4 0 5.5-2.5 2.7-4.8 5-1.6 8.4zm19.3-78.4c6.3-0.5 13.2-1 20-1.7 6.2-0.6 12.4-1.7 18.7-2.1 7.2-0.4 14.5-0.4 21.7-0.4 7.9 0 15.7 0.7 23.6 0.5 14.4-0.4 28.7-1.3 43.1-2.1 3.3-0.2 5.4 1.1 5.3 4.3-0.3 13-0.9 26-1.3 39-0.2 6.1-0.4 12.2-0.4 18.3 0 3.9-2.8 5.6-6.9 5.1-5.3-0.6-10.6-0.1-16-0.3-4.1-0.1-8.2-0.2-12.2-0.5-20.6-1.9-41.3-1.9-61.9-0.1-13.2 1.1-26.4 1.9-39.2 2.8 1.8-20.7 3.7-41.4 5.5-62.8zm-39.2-187.9c5.9 1.4 11.7 3.8 17.6 4.1 9.8 0.3 19.8 0 29.5-1.4 17.3-2.5 34.7-1.2 52-1.6 9-0.3 18.1-0.8 27.1-0.2 9.8 0.7 19.5 3 29.3 3.7 9.9 0.6 19.8-0.1 29.7 0.1 11.4 0.2 22.8 0.1 34.1 1.2 7.4 0.7 12.3-3.6 18.5-6.8-2-2.3-4.1-4.8-6.6-5.2-10.3-1.5-20.7-2.3-31.1-3.3-12.8-1.2-25.5-2.3-38.3-3.5-15.7-1.4-31.4-3.2-47.1-4.1-10.3-0.6-20.8-0.4-31.1 0-18.4 0.6-36.8 1.4-55.2 2.5-9.8 0.6-19.6 1.6-29.3 3.1-4.6 0.8-10.1 0.9-13.7 7.9 4.6 1.1 8.4 2 12.1 3 0.9 0.2 1.7 0.4 2.5 0.5zm203 68.5c0.4-1.5 0.7-2.9 1.1-4.4 1.3-4.8 0.1-6.7-4.8-7.4-7.4-1.2-14.7-2.6-22.1-3.3-18.5-1.8-37-3.1-55.6-1-3.7 0.4-7.5 0.8-11.2 0.7-8.4-0.3-16.8-1.2-25.3-1.3-13.1-0.1-26.2 0.2-39.3 0.6-3.9 0.1-7.8 0.6-11.8 1.1-5.1 0.6-10.1 1.3-16 2.1 2 5.8 4.5 8.1 8.9 8 1.5 0 3 0.4 4.4 0.9 7.1 3 14.4 3.9 22.2 3.5 10.8-0.5 21.7-0.4 32.6 0 7.3 0.3 14.6 1.6 21.9 2.4 4.2 0.4 8.4 1 12.6 1s8.4-0.9 12.6-1c11.5-0.3 23.1-0.7 34.6-0.6 10.3 0.1 20.5 0.5 30.7 1.5 3 0.2 3.9-0.4 4.5-2.8zm-178.5 46.1c2.2 1.5 5.2 2.3 7.9 2.9 7.6 1.7 14.9 5.1 23.1 3.7 4.8-0.8 9.9-0.7 14.8-0.7 12.3-0.2 24.6-0.3 36.9-0.2 7.7 0 15.5 0.2 23.2 0.7 5.8 0.3 11.5 1.6 17.2 1.8 10.5 0.3 21 0.3 31.5 0.1 2.2 0 6-1 6.4-2.3 0.7-2.3-0.3-5.3-1.2-7.9-2.1-6.2-7.9-6-12.8-6.3-17.7-1.3-35.5-2.3-53.3-3.1-11.2-0.5-22.5-0.6-33.7-0.4-9.8 0.1-19.6 0.9-29.4 1.4v-0.6c-9.9 0.5-19.7 0.9-29.6 1.8-2.1 0.2-4.1 2-6.2 3.1 1.7 2 3 4.6 5.2 6z" stroke="#000" stroke-miterlimit="10" style="fill: rgb(0, 0, 0);"></path></g>
</svg>