<svg xmlns="http://www.w3.org/2000/svg" xmlns:xlink="http://www.w3.org/1999/xlink" height="521.4" preserveAspectRatio="xMidYMid meet" version="1.0" viewBox="-5.1 -7.3 517.1 521.4" width="517.1" zoomAndPan="magnify"><g id="change1_1"><path d="M477.5,226.2c-45.5-14.2-93.6-20.8-141.7-23.9c37.8-26.9,75.7-53.6,112.4-82c23.6-18.3-6.9-56.8-31.8-41.2 c-45.8,28.9-90.1,60.6-133.4,93.5c3.9-54.1,4-110.1-10.1-160.8c-5.3-19.1-30.6-13.3-32.5,4.4c-5.1,46.9-10.2,93.7-15.7,140.5 C179.3,109.9,109.4,51.3,48.9,79.7c-8.6,4-8.2,15.7-2.8,21.8c22.4,25.4,61.5,39.9,88.3,61.1c14,11.1,26.9,23.4,39.2,36.5 c-55.2,0.2-112.4,3.1-162.3,18.8c-13.6,4.3-16.4,27.8,0,30.4c55.3,8.9,113.7,4.9,170.8,3.4c-52.9,42.4-105.7,87.8-145.6,141.8 c-15.8,21.5,17.2,43.2,35.2,27.2c44.6-39.7,87.6-80.3,132.9-118.7c-9,54.5-18.1,110.1-16,163.7c1.4,35.9,61,48.4,66.4,9 c7.1-52.6,11.1-106,15.4-159.3c32.5,38.1,67.8,73.7,111.6,99c38.4,22.2,73-37.1,34.7-59.4c-42.6-24.8-76-61.4-107.6-99.6 c51.7,4.2,103,11.8,153.5,25C497.7,289.6,512,237,477.5,226.2z" fill="#000"/></g></svg>